<?xml version="1.0" encoding="UTF-8" standalone="no"?>
<svg
 xmlns:dc="http://purl.org/dc/elements/1.1/"
 xmlns:cc="http://creativecommons.org/ns#"
 xmlns:rdf="http://www.w3.org/1999/02/22-rdf-syntax-ns#"
 xmlns:svg="http://www.w3.org/2000/svg"
 xmlns="http://www.w3.org/2000/svg"
 xmlns:sodipodi="http://sodipodi.sourceforge.net/DTD/sodipodi-0.dtd"
 xmlns:inkscape="http://www.inkscape.org/namespaces/inkscape"
 width="16"
 height="16"
 id="svg2"
 version="1.1"
 inkscape:version="0.48.1 r9760"
 sodipodi:docname="node_beach.svg">
<defs
 id="defs4" />
<sodipodi:namedview
 id="base"
 pagecolor="#ffffff"
 bordercolor="#666666"
 borderopacity="1.0"
 inkscape:pageopacity="0.0"
 inkscape:pageshadow="2"
 inkscape:zoom="64"
 inkscape:cx="10.408969"
 inkscape:cy="12.566687"
 inkscape:document-units="px"
 inkscape:current-layer="layer1"
 showgrid="false"
 inkscape:window-width="1366"
 inkscape:window-height="724"
 inkscape:window-x="0"
 inkscape:window-y="25"
 inkscape:window-maximized="1" />
<metadata
 id="metadata7">
<rdf:RDF>
<cc:Work
 rdf:about="">
<dc:format>image/svg+xml</dc:format>
<dc:type
 rdf:resource="http://purl.org/dc/dcmitype/StillImage" />
<dc:title></dc:title>
</cc:Work>
</rdf:RDF>
</metadata>
<g
 inkscape:label="Layer 1"
 inkscape:groupmode="layer"
 id="layer1"
 transform="translate(0,-1036.3622)">
<path
 style="fill:#000000;fill-opacity:1;fill-rule:nonzero;stroke:none"
 d="m 7.1602122,1037.1426 c -0.9710958,1.9406 -2.3959121,4.6998 -3.4782324,6.8106 -0.5070305,0.5379 0.3739292,-2.332 1.3730641,-3.3256 0.4865058,-0.993 1.3022029,-2.9495 2.1051683,-3.485 z"
 id="path2991"
 inkscape:connector-curvature="0"
 sodipodi:nodetypes="cccc" />
<path
 style="fill:#000000;fill-opacity:1;fill-rule:nonzero;stroke:none"
 d="m 7.124029,1037.0521 c 1.1572948,1.4317 2.4399033,1.9289 3.622429,4.0719 -1.2590846,1.1651 -2.4420314,1.662 -3.8135436,1.8364 -0.4007486,-1.6621 0.014339,-4.0483 0.2030574,-5.5991 0.00394,-0.1013 0.019233,-0.212 -0.011943,-0.3092 z"
 id="path2995"
 inkscape:connector-curvature="0"
 sodipodi:nodetypes="ccccc" />
<path
 style="fill:#000000;fill-opacity:1;fill-rule:nonzero;stroke:none"
 d="m 7.4788892,1036.9445 c 1.5388228,-0.2452 6.0333478,-0.2224 5.3022878,-0.037 -1.802753,0.319 -3.9055808,0.3081 -5.6123148,0.2614 0.072204,-0.071 0.2416951,-0.1509 0.310027,-0.223 z"
 id="path2997"
 inkscape:connector-curvature="0"
 sodipodi:nodetypes="ccccc" />
<path
 style="fill:#000000;fill-opacity:1;fill-rule:nonzero;stroke:none"
 d="m 4.0414794,1043.8016 c 1.028565,-0.1472 1.8777651,-0.7459 2.8584356,-0.8872 -0.9133861,0.7148 -2.0031507,0.889 -3.0174828,1.2222 -0.2450266,-0.036 0.079912,-0.3368 0.1590472,-0.335 z"
 id="path2999"
 inkscape:connector-curvature="0"
 sodipodi:nodetypes="cccc" />
<path
 style="fill:#000000;fill-opacity:1;fill-rule:nonzero;stroke:none"
 d="m 10.708708,1041.0703 c 0.81143,-1.115 1.424045,-2.8117 2.043381,-4.08 0.433438,0.7626 -0.964709,1.8285 -1.000769,2.6891 -0.221732,0.5834 -0.529904,1.2002 -1.042612,1.3909 z"
 id="path3003"
 inkscape:connector-curvature="0"
 sodipodi:nodetypes="cccc" />
<path
 style="fill:#000000;fill-opacity:1;fill-rule:nonzero;stroke:none"
 d="m 12.576464,1039.8157 c 0.207243,1.0806 -1.159675,0.9996 -1.00081,0.9207 0.16598,0.8459 0.120649,1.6813 -0.997417,1.7019 -0.184775,1.2157 -0.477839,1.4613 -1.719805,0.8141 -0.7043356,1.7264 -1.6441367,0.5841 -1.9197109,0.4855 -0.4362967,0.5208 -1.0724391,1.6938 -1.8937838,0.2793 0.4999555,0.3471 -0.5639411,2.0254 -1.2346324,1.4609 -0.3632433,-0.2642 -0.4740132,-1.1217 0.068607,-1.1923 l 5e-7,-5e-4 c -0.1918671,0.794 1.0064201,1.3186 0.8471267,0.2425 0.181588,-0.963 0.9631778,-0.7427 1.3259899,-0.1222 0.439344,-0.1589 0.7401217,-2.0762 1.31777,-1.0948 0.3561635,1.1552 1.4593291,0.6684 1.3082636,-0.4523 0.4886489,-0.6499 1.6192314,1.4917 1.3679454,-0.096 0.07257,-1.0091 1.09549,-0.77 1.297209,-0.8277 -0.342577,-0.8679 0.231529,-1.7994 0.875136,-1.7195 0.289632,-0.6552 -0.09832,-0.8994 0.462537,-1.3012 -0.324636,-1.3962 0.684234,-0.995 0.478192,-0.779"
 id="path3005"
 inkscape:connector-curvature="0"
 sodipodi:nodetypes="cccccccccccccccccc" />
<path
 style="fill:#000000;fill-opacity:1;fill-rule:nonzero;stroke:none"
 d="m 9.4529977,1043.5779 c 0.4031607,2.6439 0.7969113,5.3098 1.0193883,8.0704 -0.03128,1.1826 -0.5537625,0.4415 -0.415266,-0.4084 -0.1958967,-2.4639 -0.538559,-4.8513 -0.9233408,-7.1901 0.063133,-0.2928 0.2249379,-0.2696 0.3192185,-0.4719 z"
 id="path3007"
 inkscape:connector-curvature="0" />
<path
 style="fill:#000000;fill-opacity:1;fill-rule:nonzero;stroke:none"
 d="m 5.858263,1050.0284 c 0.6010024,-0.9169 1.6105425,0.2891 2.3634551,0.2261 1.72539,0.2756 3.4749739,-0.368 5.1893779,0.08 0.336434,-0.087 1.808667,0.1014 0.914877,0.4473 -1.153591,-0.063 -2.292852,-0.4134 -3.454254,-0.2306 -1.4351664,0.088 -3.0577993,0.1195 -4.440859,-0.4529 -0.7853608,0.2721 -2.6750266,0.9971 -4.095245,0.3298 -0.3808504,-0.5784 2.5205314,0.017 3.522648,-0.3992 z"
 id="path3009"
 inkscape:connector-curvature="0"
 sodipodi:nodetypes="cccccccc" />
<path
 style="fill:#000000;fill-opacity:1;fill-rule:nonzero;stroke:none"
 d="m 0.89402335,1047.2732 c 1.25738095,0.8465 2.83821265,0.5636 4.26336675,0.5661 1.0579557,-0.7609 2.2880947,0.4951 3.3922175,-0.053 0.9667251,-0.2827 0.4258276,0.3305 -0.1582444,0.3784 -1.2839637,0.316 -2.5797594,-0.4022 -3.8660336,-0.039 -1.3178715,0.1596 -2.7730407,0.2652 -3.96683846,-0.4135 -0.15986048,-0.2061 0.17488876,-0.3944 0.33553221,-0.4377 z"
 id="path3013"
 inkscape:connector-curvature="0" />
<path
 style="fill:#000000;fill-opacity:1;fill-rule:nonzero;stroke:none"
 d="m 11.397047,1047.2807 c 1.259672,-0.1731 2.514861,0.9674 3.748371,0.2382 0.45257,-0.2845 0.539932,-0.029 0.07503,0.1757 -0.947661,0.5154 -2.042693,0.5404 -2.997883,0.048 -0.155968,-0.063 -1.346865,0.012 -0.825525,-0.462 z"
 id="path3015"
 inkscape:connector-curvature="0" />
<path
 style="fill:#000000;fill-opacity:1;fill-rule:nonzero;stroke:none"
 d="m 4.6253652,1046.0773 c 1.1532564,0.3293 2.3277319,-0.2198 3.4848134,0.046 -0.7351051,0.7755 -1.7320292,-0.013 -2.5701029,0.374 -0.218633,0.1002 -1.6380521,0.098 -0.9147105,-0.4192 z"
 id="path3017"
 inkscape:connector-curvature="0" />
<path
 style="fill:#000000;fill-opacity:1;fill-rule:nonzero;stroke:none"
 d="m 10.780014,1045.1876 c 0.818341,0.8246 1.885084,-0.1424 2.765662,0.4009 0.441136,0.1896 1.157243,-0.5589 1.428578,0 -1.180063,0.5739 -2.456142,-0.013 -3.662161,0.3417 -0.275868,0.023 -1.256186,-0.4456 -0.532079,-0.7426 z"
 id="path3019"
 inkscape:connector-curvature="0" />
<path
 style="fill:#000000;fill-opacity:1;fill-rule:nonzero;stroke:none"
 d="m 3.1145385,1046.2654 c -0.8996344,0.074 -0.9962918,0.3898 -2.66682843,-0.7336 -0.56453364,0.2321 -0.4152327,-0.7615 0.26254628,-0.3758 0.86937635,0.4343 1.39982695,1.2588 2.37863545,0.7229 0.4204631,-0.025 0.3462696,0.2494 0.025647,0.3865 z"
 id="path3021"
 inkscape:connector-curvature="0"
 sodipodi:nodetypes="ccccc" />
</g>
</svg>
