<?xml version="1.0" encoding="UTF-8" standalone="no"?>
<svg
 xmlns:dc="http://purl.org/dc/elements/1.1/"
 xmlns:cc="http://creativecommons.org/ns#"
 xmlns:rdf="http://www.w3.org/1999/02/22-rdf-syntax-ns#"
 xmlns:svg="http://www.w3.org/2000/svg"
 xmlns="http://www.w3.org/2000/svg"
 xmlns:sodipodi="http://sodipodi.sourceforge.net/DTD/sodipodi-0.dtd"
 xmlns:inkscape="http://www.inkscape.org/namespaces/inkscape"
 version="1.1"
 width="16"
 height="16"
 id="svg2"
 inkscape:version="0.48.1 r9760"
 sodipodi:docname="node_museum.svg">
<sodipodi:namedview
 pagecolor="#ffffff"
 bordercolor="#666666"
 borderopacity="1"
 objecttolerance="10"
 gridtolerance="10"
 guidetolerance="10"
 inkscape:pageopacity="0"
 inkscape:pageshadow="2"
 inkscape:window-width="640"
 inkscape:window-height="480"
 id="namedview21"
 showgrid="false"
 inkscape:zoom="19.1875"
 inkscape:cx="8"
 inkscape:cy="8"
 inkscape:window-x="0"
 inkscape:window-y="0"
 inkscape:window-maximized="0"
 inkscape:current-layer="svg2" />
<defs
 id="defs4" />
<metadata
 id="metadata7">
<rdf:RDF>
<cc:Work
 rdf:about="">
<dc:format>image/svg+xml</dc:format>
<dc:type
 rdf:resource="http://purl.org/dc/dcmitype/StillImage" />
<dc:title />
</cc:Work>
</rdf:RDF>
</metadata>
<path
 inkscape:connector-curvature="0"
 style="fill:#000000;fill-opacity:1;fill-rule:nonzero;stroke:none"
 id="path2985"
 d="m 1.1584978,14.2229 c 0.015974,-3.021 -0.42903667,-9.7002 0.2034143,-9.0743 0.5815187,-2.1782 0.037852,5.8363 0.3812702,7.9429 0.050466,0.4162 0.025798,1.2094 -0.5846845,1.1314 z" />
<path
 inkscape:connector-curvature="0"
 style="fill:#000000;fill-opacity:1;fill-rule:nonzero;stroke:none"
 id="path2987"
 d="M 3.3010091,5.0134 C 2.7581441,7.9783 2.9198839,11.0061 3.011958,14.0012 1.4697428,16.1032 2.59833,3.3001 3.3010091,5.0134 z" />
<path
 inkscape:connector-curvature="0"
 style="fill:#000000;fill-opacity:1;fill-rule:nonzero;stroke:none"
 id="path2989"
 d="M 6.2895796,5.0462 C 5.4284971,7.8981 5.8115606,10.9057 5.6151518,13.8336 4.4774567,13.9306 5.0572898,12.5182 5.0096089,11.8614 4.9041241,9.7341 5.1230014,7.5959 5.3790582,5.488 5.4929744,5.0958 5.9460442,5.0431 6.2895796,5.0462 z" />
<path
 inkscape:connector-curvature="0"
 style="fill:#000000;fill-opacity:1;fill-rule:nonzero;stroke:none"
 id="path2991"
 d="M 6.9016299,13.7755 C 5.7957621,14.1241 6.3202176,12.8731 6.3668313,12.2875 6.5469101,10.0308 6.2802053,7.5517 6.9627179,5.3595 7.8408507,3.6856 6.7737435,11.8522 6.9016299,13.7755 z" />
<path
 inkscape:connector-curvature="0"
 style="fill:#000000;fill-opacity:1;fill-rule:nonzero;stroke:none"
 id="path2993"
 d="m 9.6644728,13.8417 c -0.037448,-0.8364 0.1809447,-1.6654 0.079385,-2.5029 0.017333,-2.0486 0.1308333,-3.8157 0.00565,-5.8626 0.6475022,-1.7043 0.9095102,9.6535 -0.085038,8.3655 z" />
<path
 inkscape:connector-curvature="0"
 style="fill:#000000;fill-opacity:1;fill-rule:nonzero;stroke:none"
 id="path2995"
 d="m 11.775639,14.1216 c -1.085921,0.2053 -0.590971,-1.1158 -0.499966,-1.7532 0.174974,-2.422 -0.226286,-4.8469 -0.227776,-7.2708 1.050785,-1.3764 1.010147,7.4743 0.727742,9.024 z" />
<path
 inkscape:connector-curvature="0"
 style="fill:#000000;fill-opacity:1;fill-rule:nonzero;stroke:none"
 id="path2997"
 d="m 15.540475,5.151 c -0.08917,3.1308 -0.09463,8.3439 -0.660869,9.3833 -0.740402,0.2716 0.27829,-6.1555 -0.01947,-9.2587 0.14984,-0.2691 0.47425,0.025 0.680336,-0.1246 z" />
<path
 inkscape:connector-curvature="0"
 style="fill:#000000;fill-opacity:1;fill-rule:nonzero;stroke:none"
 id="path2999"
 d="M 0.73696583,4.6405 C 5.6670351,5.3051 10.652607,4.6205 15.594956,5.0788 15.127804,5.8003 14.114822,5.3423 13.406425,5.5282 9.2290141,5.6232 5.047926,5.4452 0.88104789,5.1755 0.58324566,5.1275 0.35219418,4.8015 0.73696583,4.6405 z" />
<path
 inkscape:connector-curvature="0"
 style="fill:#000000;fill-opacity:1;fill-rule:nonzero;stroke:none"
 id="path3001"
 d="M 0.05681852,4.7723 C 2.4946605,2.8193 5.2153708,1.2107 8.1274968,0.0749 c 1.7803983,0.3197 3.0314652,1.7209 4.4029072,2.7679 1.053784,0.7716 2.05158,1.7 3.332649,2.0761 C 14.589701,5.3954 13.318966,4.5383 12.327699,3.8169 11.161895,2.9293 9.9530784,1.6707 8.6293856,1.0065 5.5501257,1.4024 3.2488204,3.584 0.42120451,4.6804 0.30170033,4.7184 0.18021086,4.7504 0.05681852,4.7724 z" />
<path
 inkscape:connector-curvature="0"
 style="fill:#000000;fill-opacity:1;fill-rule:nonzero;stroke:none"
 id="path3003"
 d="M 0.75079157,13.7765 C 4.622853,13.7485 8.5232634,13.4703 12.36701,14.0879 c 1.089478,0.1123 2.185646,0.1401 3.275261,0.2508 0.616148,0.6663 -0.819209,0.3221 -1.149635,0.2292 C 10.561641,14.0591 6.5672165,13.8427 2.6191564,14.2739 2.1276343,14.394 0.29098729,14.8683 0.75079157,13.7765 z" />
<path
 inkscape:connector-curvature="0"
 style="fill:#000000;fill-opacity:1;fill-rule:nonzero;stroke:none"
 id="path3005"
 d="m 15.220359,14.6911 c -4.506565,0.096 -9.0292006,-0.4805 -13.5228472,0.041 -0.5048464,0.072 -0.89951068,0.8014 -0.072917,0.5649 3.5658001,-0.145 7.1339384,-0.3335 10.7034382,-0.2137 0.984748,0 1.969984,-0.01 2.954086,0.036 0.221316,-0.065 0.121987,-0.3875 -0.06176,-0.4283 z" />
<path
 inkscape:connector-curvature="0"
 style="fill:#000000;fill-opacity:1;fill-rule:nonzero;stroke:none"
 id="path3007"
 d="m 1.4484511,15.562 c 4.6185626,0.042 9.2447929,0.1481 13.8559699,-0.1839 -1.431908,0.9145 -3.179849,0.3086 -4.754915,0.5463 -3.2304705,0.1064 -6.4629204,-0.035 -9.69369175,0.05 0.092232,-0.2614 0.43181855,-0.2232 0.59263685,-0.4121 z" />
<path
 inkscape:connector-curvature="0"
 style="fill:#000000;fill-opacity:1;fill-rule:nonzero;stroke:none"
 id="path3537"
 d="m 13.608561,5.151 c 0.09196,3.0195 -0.562293,6.0389 -0.146374,9.0521 0.743336,0.2627 0.310407,-1.1492 0.429572,-1.5805 -0.534898,-2.0838 1.26895,-7.7304 -0.283198,-7.4716 z" />
<path
 inkscape:connector-curvature="0"
 style="fill:#000000;fill-opacity:1;fill-rule:nonzero;stroke:none"
 id="path3539"
 d="M 8.3369014,1.8185 C 7.8247747,1.387 8.9536944,1.367 8.9820037,1.8425 10.242542,2.845 11.534169,3.821 12.946127,4.6027 11.052995,4.3381 9.6568769,2.9414 8.3369014,1.8184 z" />
<path
 inkscape:connector-curvature="0"
 style="fill:#000000;fill-opacity:1;fill-rule:nonzero;stroke:none"
 id="path3564"
 d="M 7.3233332,1.922 C 7.8428111,1.2627 6.4885143,1.991 6.2950372,2.2089 4.9474667,2.9988 3.5826882,3.7639 2.1642427,4.4203 3.2969421,4.5133 5.857102,2.9277 7.3233332,1.922 z" />
</svg>
