<?xml version="1.0" encoding="UTF-8" standalone="no"?>
<svg xmlns:dc="http://purl.org/dc/elements/1.1/" xmlns:cc="http://creativecommons.org/ns#" xmlns:rdf="http://www.w3.org/1999/02/22-rdf-syntax-ns#" xmlns:svg="http://www.w3.org/2000/svg" xmlns="http://www.w3.org/2000/svg" version="1.1" width="16" height="16" id="svg2">
 <defs id="defs4" />
 <metadata id="metadata7">
  <rdf:RDF>
   <cc:Work rdf:about="">
    <dc:format>image/svg+xml</dc:format>
    <dc:type rdf:resource="http://purl.org/dc/dcmitype/StillImage" />
    <dc:title></dc:title>
   </cc:Work>
  </rdf:RDF>
 </metadata>
 <path d="M 1.3788317,15.979401 C 0.69734197,13.417769 0.89285108,10.766264 1.173908,8.173335 2.8439413,6.3887496 5.8108175,7.4210015 8.0724872,6.8989644 9.8727908,6.9461102 13.00338,6.1884968 13.081739,8.5215142 13.032325,10.813433 12.866825,12.942405 12.770952,15.236935 12.309914,16.46612 10.452981,16.112104 11.367855,14.87439 11.380724,12.76943 12.145412,10.697358 11.884872,8.5963333 10.753717,6.7582385 7.450593,8.0165807 5.4239612,7.8268526 4.3524722,8.2069903 0.95594353,8.0270127 2.6616117,8.0037744 2.3684995,9.7483981 2.3874977,11.240608 2.4343825,12.992579 2.7161442,16.023333 3.185088,15.752006 1.3788317,15.979401 z" id="path2985" style="fill:#000000;fill-opacity:1;fill-rule:nonzero;stroke:none" />
 <path d="M 4.4694673,15.971193 C 4.0555377,14.404601 4.4680322,8.5756151 6.8776199,8.9074893 9.1003811,9.0636848 10.182638,16.082669 8.3549793,15.600131 9.2679685,14.562156 8.0371745,9.2709145 5.6827525,10.189585 4.6257984,12.745467 5.130066,14.648067 5.8539135,15.64596 5.6020093,15.99442 4.9419958,15.914655 4.4694673,15.971193 z" id="path2987" style="fill:#000000;fill-opacity:1;fill-rule:nonzero;stroke:none" />
 <path d="M -4.5791453e-6,8.5030721 C 1.8518545,7.328847 2.0064187,5.5258864 3.7319557,3.8091663 4.8669756,2.6174383 5.2003869,0.86277918 6.7889371,0.1650033 8.9661561,-0.43482146 8.9799033,2.0608068 9.8353382,3.134243 10.80836,4.8041948 11.906512,6.5755882 13.737453,7.6566515 c 1.302636,0.051665 3.70601,1.6443733 1.219193,1.8039666 C 13.136699,8.7719412 11.169771,8.0608684 10.139861,6.4810049 8.6259184,4.8221653 8.0620696,2.6060099 6.645508,0.97875259 6.6502281,-0.10851078 8.0429662,0.50488895 6.8410187,1.4495332 5.6627848,3.1302155 3.9313541,4.3139853 2.9323514,6.1063136 2.0931178,7.1126464 1.4180592,8.1551641 -4.5791453e-6,8.5030721 z" id="path2995" style="fill:#000000;fill-opacity:1;fill-rule:nonzero;stroke:none" />
</svg>
